<svg version="1.1" id="Layer_1" xmlns="http://www.w3.org/2000/svg" xmlns:xlink="http://www.w3.org/1999/xlink" x="0px" y="0px"
	 width="100%" viewBox="0 0 1600 896" enable-background="new 0 0 1600 896" xml:space="preserve">
<path fill="#112530" opacity="1.000000" stroke="none" 
	d="
M1054.000000,897.000000 
	C702.666687,897.000000 351.833344,897.000000 1.000000,897.000000 
	C1.000000,598.333313 1.000000,299.666656 1.000000,1.000000 
	C534.333313,1.000000 1067.666626,1.000000 1601.000000,1.000000 
	C1601.000000,299.666656 1601.000000,598.333313 1601.000000,897.000000 
	C1418.833374,897.000000 1236.666626,897.000000 1054.000000,897.000000 
M686.007996,375.504242 
	C685.870972,375.495850 685.733948,375.487457 685.596863,375.479095 
	C685.706177,375.671967 685.815491,375.864868 686.129211,376.700043 
	C692.194275,383.087738 698.176147,389.169525 707.471985,391.316315 
	C718.295837,393.815948 728.815369,397.626984 739.482666,400.816467 
	C741.448303,401.404175 743.488525,401.742249 746.177856,402.350006 
	C742.738586,394.807800 739.025940,389.205597 730.812439,387.878296 
	C725.603088,387.036499 720.598267,384.976471 715.468018,383.587311 
	C705.717590,380.947144 695.942993,378.396179 686.007996,375.504242 
M874.069397,363.618561 
	C894.679138,357.657135 915.250000,351.556183 935.918762,345.807068 
	C943.555786,343.682770 948.267334,338.524841 953.312378,331.581573 
	C950.351257,332.293884 948.471008,332.691772 946.620911,333.199524 
	C927.208435,338.527374 907.782471,343.807281 888.397766,349.234528 
	C873.345215,353.448853 858.308533,357.730652 843.355896,362.281616 
	C840.538330,363.139160 839.629272,361.977905 838.077637,360.262695 
	C833.646362,355.364410 829.341248,350.237732 824.284607,346.047943 
	C817.711670,340.601746 810.552795,335.834930 803.416687,331.123169 
	C802.212830,330.328339 799.476379,330.691956 798.104614,331.559052 
	C795.349854,333.300415 793.382690,336.533752 790.498108,337.778015 
	C781.186401,341.794586 773.612427,348.120300 767.617371,355.858978 
	C763.274780,361.464600 759.910950,362.165161 753.146118,359.949036 
	C734.747314,353.921753 715.912415,349.223663 697.243225,344.024200 
	C683.290710,340.138275 669.328491,336.287109 655.366943,332.433807 
	C653.503418,331.919495 651.618225,331.483826 648.994690,330.823364 
	C653.456116,338.611694 658.468262,343.852081 666.787292,346.140991 
	C691.180176,352.852386 715.369934,360.299927 739.742126,367.089752 
	C745.836304,368.787537 749.583191,371.827484 752.489563,377.565369 
	C762.862122,398.044098 776.663330,415.764435 795.887329,428.917999 
	C799.788513,431.587341 802.462036,431.476410 806.397827,428.934082 
	C826.231323,416.122772 839.467651,397.730469 850.332642,377.421265 
	C853.272522,371.925964 856.440552,367.844238 862.829102,366.701508 
	C866.368469,366.068390 869.792969,364.792969 874.069397,363.618561 
M948.764099,513.617310 
	C945.903992,509.591888 943.043823,505.566467 940.115906,501.445679 
	C941.062256,500.953827 941.637329,500.620514 942.239563,500.347107 
	C950.621765,496.542206 954.681396,490.627380 954.037598,483.140503 
	C953.417786,475.931000 947.866455,469.423798 939.175964,468.622009 
	C928.592957,467.645569 917.851196,468.389862 907.178162,468.389862 
	C912.681458,469.444183 913.102844,473.294739 913.039795,477.886322 
	C912.861450,490.869354 912.993103,503.856384 912.947876,516.841614 
	C912.931763,521.477661 913.867554,526.575684 907.978333,528.669006 
	C913.865845,528.669006 919.753357,528.669006 924.730164,528.669006 
	C923.542969,526.546448 921.289856,524.369507 921.250916,522.153748 
	C920.953430,505.234833 921.087708,488.308350 921.087708,471.422394 
	C936.058350,469.643860 943.740662,473.090118 945.238708,482.085052 
	C946.952515,492.375763 942.418274,496.834106 927.357361,500.229919 
	C929.269226,502.091492 931.681702,504.028748 933.585266,506.378265 
	C937.771851,511.545380 941.937988,516.759766 945.676880,522.251343 
	C950.533020,529.383728 957.188660,529.964539 964.786926,528.373779 
	C957.419800,525.946960 953.502258,519.858948 948.764099,513.617310 
M649.898376,473.290771 
	C651.294800,471.555969 652.691223,469.821198 654.049194,468.134186 
	C648.008423,468.134186 641.720764,468.134186 635.433044,468.134186 
	C641.373230,469.423431 641.550049,473.788757 641.492676,478.537567 
	C641.376038,488.191101 641.086182,497.870819 641.661560,507.492249 
	C641.938477,512.122437 643.065491,517.241516 645.477783,521.093140 
	C650.670410,529.383850 663.674744,532.328003 675.334412,528.923035 
	C685.177734,526.048462 690.702576,518.888672 691.077087,507.783722 
	C691.408020,497.971771 691.285461,488.144867 691.394836,478.324921 
	C691.442017,474.090576 691.756287,469.958557 696.760315,468.260132 
	C691.668823,468.260132 686.577393,468.260132 682.931030,468.260132 
	C684.240662,470.546631 686.889343,473.079132 686.990051,475.709198 
	C687.422546,487.007050 687.474304,498.350525 686.953796,509.644623 
	C686.478516,519.957458 679.283081,526.153992 668.828552,526.334595 
	C657.800537,526.525208 650.604553,520.876953 649.989807,510.073944 
	C649.310547,498.138580 649.794128,486.137115 649.898376,473.290771 
M740.089722,526.101379 
	C748.220337,530.489502 756.942261,531.569275 765.588501,528.824097 
	C769.764282,527.498352 773.951111,524.568237 776.867004,521.251587 
	C783.114380,514.145447 781.096375,503.745300 772.882996,498.974060 
	C768.754395,496.575775 764.114197,495.056671 759.700256,493.151825 
	C756.809265,491.904114 753.808655,490.866638 751.037109,489.395966 
	C747.120239,487.317627 745.485535,483.827972 745.857666,479.421844 
	C746.233521,474.972870 748.635071,472.134979 752.770996,470.553864 
	C761.002014,467.407257 768.897400,470.632477 772.551697,478.685760 
	C772.903564,479.461304 773.481262,480.134399 774.742004,482.055725 
	C774.336365,476.584320 774.039673,472.582977 773.692993,467.907227 
	C767.419617,467.557526 761.452515,466.652405 755.568298,467.032013 
	C746.885315,467.592133 740.701294,473.514954 739.279358,481.404968 
	C737.999756,488.505249 741.308044,494.099182 749.500366,498.351501 
	C751.847290,499.569672 754.377991,500.437775 756.837891,501.433105 
	C760.526489,502.925690 764.331238,504.176208 767.894531,505.921570 
	C771.814392,507.841614 773.863281,511.393036 773.655640,515.675171 
	C773.441589,520.088562 771.163269,523.491028 766.970032,525.443237 
	C756.715820,530.217224 745.197815,525.758362 740.992310,515.345398 
	C740.597656,514.368286 740.127869,513.421509 739.692993,512.460632 
	C739.404724,512.517761 739.116455,512.574829 738.828186,512.631958 
	C739.164917,516.868958 739.501709,521.105896 740.089722,526.101379 
M1022.665466,471.156189 
	C1017.376282,483.164429 1012.392334,495.320160 1006.688110,507.127930 
	C1003.022705,514.715393 1002.111328,524.137512 992.811340,528.594360 
	C998.079285,528.594360 1002.637695,528.594360 1007.196045,528.594360 
	C1002.670837,526.352966 1004.319885,522.968384 1005.335266,519.897461 
	C1009.091797,508.535980 1009.130371,508.548676 1021.106018,508.520508 
	C1021.771484,508.518921 1022.436890,508.517029 1023.102356,508.515594 
	C1036.734619,508.485901 1036.695679,508.501099 1041.587524,521.032837 
	C1042.843262,524.249451 1043.915161,527.174622 1039.250122,528.439087 
	C1045.086914,528.439087 1050.923706,528.439087 1056.321167,528.439087 
	C1054.734741,526.479858 1052.810059,524.829529 1051.804810,522.737366 
	C1047.063721,512.868652 1042.584229,502.874420 1037.992188,492.933838 
	C1033.967041,484.220398 1029.916382,475.518738 1025.480591,465.957489 
	C1024.318848,468.024353 1023.619446,469.268585 1022.665466,471.156189 
M865.756531,373.200165 
	C861.201782,374.102600 858.284851,376.853516 855.834229,380.784027 
	C851.268494,388.107178 846.200623,395.117584 841.330200,402.250275 
	C840.389648,403.627747 839.397034,404.969604 838.020508,406.899963 
	C843.799805,406.545013 847.473694,404.774567 849.886658,400.324860 
	C852.021179,396.388702 854.414185,392.518494 857.224060,389.049286 
	C859.055725,386.787781 861.567383,384.425751 864.236267,383.598175 
	C883.112793,377.744751 902.152466,372.418365 921.041626,366.604034 
	C927.098877,364.739563 931.117493,360.022766 934.046936,354.047333 
	C911.541931,360.391144 889.036926,366.734955 865.756531,373.200165 
M733.438843,372.689911 
	C725.523010,370.185394 717.643982,367.556366 709.682922,365.205048 
	C697.241699,361.530518 684.745850,358.040649 672.270691,354.481201 
	C670.112549,353.865417 667.942322,353.292145 665.196899,352.540192 
	C669.942200,360.390778 675.992004,365.233521 683.384277,367.438568 
	C699.631165,372.284851 715.804688,377.402557 732.164185,381.833649 
	C739.338989,383.777039 744.850037,386.917816 748.174927,393.776947 
	C749.682129,396.886292 751.983398,399.622192 754.014465,402.463257 
	C756.410706,405.815125 759.795837,406.946564 764.376160,406.838989 
	C759.724121,399.892700 755.120178,393.589233 751.139282,386.914215 
	C747.098694,380.139343 742.349121,374.594421 733.438843,372.689911 
M822.853516,467.910645 
	C820.934692,467.910645 819.015930,467.910645 817.279602,467.910645 
	C816.607117,471.403015 816.077454,474.153687 815.547791,476.904358 
	C821.874451,468.200409 830.565186,472.000000 838.754028,471.265594 
	C838.754028,486.961151 838.742126,501.908417 838.761108,516.855652 
	C838.767151,521.624512 839.577454,526.712769 833.488953,528.661865 
	C839.547119,528.661865 845.605225,528.661865 851.663330,528.661865 
	C845.978760,527.363647 846.807983,522.892700 846.781555,518.978394 
	C846.707458,507.998047 846.721497,497.017090 846.705933,486.036377 
	C846.699158,481.263275 846.704834,476.490173 846.704834,471.054932 
	C854.225220,472.526093 862.000183,468.439331 867.924438,475.996246 
	C867.924438,473.136871 867.924438,470.614960 867.924438,467.917419 
	C853.010254,467.917419 838.390991,467.917419 822.853516,467.910645 
M566.838562,502.500122 
	C566.844177,494.513062 566.824524,486.525848 566.865845,478.538971 
	C566.887268,474.399261 565.968567,469.781067 571.586914,468.128662 
	C565.531067,468.128662 559.475159,468.128662 553.419250,468.128662 
	C558.550537,469.652924 559.071594,473.363892 559.000793,477.870209 
	C558.786560,491.511932 558.867371,505.158234 558.824219,518.802734 
	C558.811584,522.796753 559.216431,527.007812 553.624146,528.434814 
	C566.834106,528.826355 579.567200,528.846924 592.300171,528.817749 
	C598.679443,528.803162 600.896912,526.376831 600.782043,519.345398 
	C590.745911,529.293640 578.550293,523.477966 566.839050,525.383240 
	C566.839050,517.421143 566.839050,510.460632 566.838562,502.500122 
M873.633972,397.120880 
	C880.609192,395.043304 887.500793,392.599915 894.580872,390.980713 
	C903.437439,388.955139 909.611816,383.648712 915.593323,375.869659 
	C900.904602,380.087708 887.406555,384.515717 873.623230,387.714508 
	C865.381226,389.627289 859.892151,393.538666 857.116211,401.784607 
	C862.432312,400.295593 867.652039,398.833618 873.633972,397.120880 
M766.706238,569.781067 
	C765.735779,572.059937 764.765259,574.338867 763.723083,576.786072 
	C766.538574,575.305176 768.762878,573.202454 770.956604,573.233826 
	C773.327820,573.267639 775.670532,575.294861 778.608276,576.739014 
	C776.105164,571.554077 773.725830,566.625488 770.850403,560.669250 
	C769.135986,564.328430 768.023376,566.703125 766.706238,569.781067 
M894.962891,574.825806 
	C897.191406,575.561829 899.429199,576.848999 901.644531,576.811462 
	C902.829712,576.791382 905.199463,573.801331 904.935181,573.330750 
	C903.557617,570.877930 901.505615,568.803894 899.184753,565.986633 
	C900.483643,565.215576 902.200195,564.196594 903.916687,563.177612 
	C901.846741,562.122437 899.518250,561.664856 897.539917,562.299316 
	C896.408752,562.662048 894.850098,565.387512 895.225525,566.027161 
	C896.175720,567.646362 898.100281,568.700073 899.653015,569.957458 
	C900.723389,570.824219 901.983948,571.531433 902.791687,572.590332 
	C902.976746,572.832886 901.669312,574.929077 901.016479,574.946350 
	C899.673340,574.981812 898.329529,574.094116 896.941467,573.787354 
	C896.433777,573.675232 895.800049,574.133362 894.962891,574.825806 
M739.809509,575.202759 
	C740.665161,575.843750 741.520874,576.484680 742.376526,577.125671 
	C742.554749,576.894653 742.732971,576.663635 742.911255,576.432678 
	C741.821533,574.623657 740.731873,572.814697 739.642212,571.005676 
	C740.148499,570.952393 740.654724,570.899109 741.161011,570.845764 
	C741.307556,568.257690 742.520447,564.243958 741.373047,563.385803 
	C739.158691,561.729553 735.611755,561.855042 732.588623,561.235962 
	C732.588623,567.267822 732.588623,572.031006 732.588623,576.794128 
	C732.944458,576.826782 733.300293,576.859375 733.656128,576.892029 
	C733.950012,574.971130 734.243958,573.050232 734.792542,569.465027 
	C736.912109,571.844604 738.180359,573.268433 739.809509,575.202759 
M801.867493,567.934753 
	C800.915833,565.800537 799.964172,563.666321 799.012512,561.532043 
	C798.465515,561.803467 797.918457,562.074890 797.371399,562.346375 
	C799.536377,567.300293 801.701294,572.254272 804.362061,578.342773 
	C807.083313,572.036499 809.211792,567.104004 811.340210,562.171570 
	C810.953735,561.994812 810.567261,561.817993 810.180786,561.641235 
	C808.209045,564.990967 806.237244,568.340637 803.998230,572.144348 
	C803.077881,570.483887 802.606018,569.632446 801.867493,567.934753 
M837.515686,561.716003 
	C836.080200,561.793640 834.644653,561.871277 833.130798,561.953125 
	C833.130798,567.218079 833.130798,572.118958 833.130798,576.702148 
	C836.580933,576.702148 839.731323,576.702148 842.881714,576.702148 
	C842.881836,576.374023 842.882019,576.045898 842.882202,575.717773 
	C840.382080,575.717773 837.882019,575.717773 835.210083,575.717773 
	C835.210083,571.346375 835.210083,567.475525 835.210083,563.614502 
	C837.952881,563.418823 840.361633,563.247009 842.770386,563.075134 
	C842.735291,562.706665 842.700195,562.338135 842.665100,561.969666 
	C841.211426,561.874512 839.757751,561.779419 837.515686,561.716003 
M707.420776,563.312805 
	C708.465637,563.094910 709.510498,562.877014 710.555359,562.659119 
	C710.512268,562.467834 710.469238,562.276489 710.426208,562.085205 
	C706.878662,562.085205 703.331055,562.085205 699.783508,562.085205 
	C699.767822,562.326050 699.752136,562.566956 699.736450,562.807800 
	C701.109497,563.137756 702.482544,563.467773 704.405884,563.929993 
	C704.405884,568.321045 704.405884,572.608887 704.405884,576.896729 
	C704.858765,576.908569 705.311584,576.920471 705.764465,576.932312 
	C706.046936,572.537048 706.329407,568.141785 707.420776,563.312805 
M866.898865,562.793640 
	C866.237122,563.020386 865.004395,563.232666 864.998230,563.476074 
	C864.882996,568.012878 864.913696,572.553406 864.913696,576.790527 
	C868.134644,576.790527 870.665527,576.790527 873.196350,576.790527 
	C873.198975,576.565247 873.201538,576.339966 873.204163,576.114685 
	C871.176086,575.823425 869.148010,575.532166 866.884949,575.207153 
	C866.884949,571.143616 866.884949,567.355164 866.898865,562.793640 
M602.949890,516.038330 
	C602.949890,516.038330 602.916321,515.996521 602.949890,516.038330 
M936.429138,353.503448 
	C936.429138,353.503448 936.473816,353.488007 936.429138,353.503448 
z"/>
<path fill="#9D845C" opacity="1.000000" stroke="none" 
	d="
M873.669312,363.712830 
	C869.792969,364.792969 866.368469,366.068390 862.829102,366.701508 
	C856.440552,367.844238 853.272522,371.925964 850.332642,377.421265 
	C839.467651,397.730469 826.231323,416.122772 806.397827,428.934082 
	C802.462036,431.476410 799.788513,431.587341 795.887329,428.917999 
	C776.663330,415.764435 762.862122,398.044098 752.489563,377.565369 
	C749.583191,371.827484 745.836304,368.787537 739.742126,367.089752 
	C715.369934,360.299927 691.180176,352.852386 666.787292,346.140991 
	C658.468262,343.852081 653.456116,338.611694 648.994690,330.823364 
	C651.618225,331.483826 653.503418,331.919495 655.366943,332.433807 
	C669.328491,336.287109 683.290710,340.138275 697.243225,344.024200 
	C715.912415,349.223663 734.747314,353.921753 753.146118,359.949036 
	C759.910950,362.165161 763.274780,361.464600 767.617371,355.858978 
	C773.612427,348.120300 781.186401,341.794586 790.498108,337.778015 
	C793.382690,336.533752 795.349854,333.300415 798.104614,331.559052 
	C799.476379,330.691956 802.212830,330.328339 803.416687,331.123169 
	C810.552795,335.834930 817.711670,340.601746 824.284607,346.047943 
	C829.341248,350.237732 833.646362,355.364410 838.077637,360.262695 
	C839.629272,361.977905 840.538330,363.139160 843.355896,362.281616 
	C858.308533,357.730652 873.345215,353.448853 888.397766,349.234528 
	C907.782471,343.807281 927.208435,338.527374 946.620911,333.199524 
	C948.471008,332.691772 950.351257,332.293884 953.312378,331.581573 
	C948.267334,338.524841 943.555786,343.682770 935.918762,345.807068 
	C915.250000,351.556183 894.679138,357.657135 873.669312,363.712830 
M820.886902,406.352966 
	C827.623169,399.251465 828.369202,397.390015 822.245911,389.766937 
	C816.086914,382.099243 808.518677,375.563507 801.277893,368.238312 
	C795.504883,373.263306 790.252319,376.960846 786.151733,381.663025 
	C782.427246,385.933899 779.698181,391.166077 777.096008,396.263306 
	C776.353027,397.718658 776.860596,400.909607 778.024719,402.059875 
	C784.626587,408.583008 791.492188,414.857117 798.564941,420.866699 
	C799.658508,421.795868 802.884216,421.694122 804.098511,420.750122 
	C809.726379,416.375275 814.992615,411.535248 820.886902,406.352966 
M767.342346,362.883423 
	C759.806335,375.255249 764.544617,385.600830 772.203674,392.322021 
	C780.201599,384.081573 785.812805,374.688690 784.535950,362.566437 
	C784.468872,361.929474 784.950623,361.203522 784.802185,360.613190 
	C784.545166,359.590637 784.261169,358.291260 783.518188,357.726440 
	C781.043701,355.845093 778.360291,354.238434 775.115723,352.104797 
	C772.566772,355.618591 770.155640,358.942383 767.342346,362.883423 
M817.955688,361.010559 
	C818.196167,365.474396 818.413879,369.939667 818.690247,374.401276 
	C818.780457,375.856384 818.543884,377.634369 819.278687,378.695435 
	C822.797546,383.776764 826.598450,388.662781 830.853088,394.360046 
	C833.786621,388.600586 836.604858,383.210632 839.249207,377.736755 
	C839.696899,376.810059 839.807922,375.322174 839.376038,374.432770 
	C836.149353,367.789032 832.908569,361.138794 829.264648,354.722076 
	C828.524780,353.419189 826.056702,353.097656 824.385376,352.323669 
	C822.971252,355.586792 816.675720,354.813385 817.955688,361.010559 
M789.683594,354.621582 
	C789.695190,355.282074 789.438599,356.314026 789.759766,356.545929 
	C793.222595,359.046204 796.526978,362.136566 800.422302,363.493469 
	C802.091736,364.075012 805.051941,360.995026 807.404724,359.544525 
	C808.107605,359.111237 808.691467,358.474518 809.411987,358.081848 
	C812.280457,356.518738 812.966125,353.887909 811.757568,351.298828 
	C810.086853,347.719696 808.508301,342.744415 805.526855,341.407318 
	C798.993958,338.477600 794.140381,341.481750 791.508484,348.184448 
	C790.785095,350.026733 790.363708,351.987640 789.683594,354.621582 
M812.863770,373.527374 
	C813.549133,373.379242 814.837524,373.205872 814.832581,373.086609 
	C814.656677,368.886444 814.359375,364.691376 814.008301,359.434753 
	C810.175293,362.195129 807.348083,364.231171 804.187378,366.507385 
	C807.213989,368.937256 809.782104,370.999054 812.863770,373.527374 
M789.759094,361.848724 
	C789.260254,361.992767 788.350220,362.083435 788.323547,362.288788 
	C787.840759,366.007050 787.464417,369.739197 787.065430,373.468353 
	C787.445923,373.699646 787.826416,373.930908 788.206970,374.162201 
	C790.975037,371.711060 793.743103,369.259918 796.840576,366.517059 
	C794.431702,364.936890 792.383850,363.593567 789.759094,361.848724 
M788.248718,342.909637 
	C785.642212,344.500793 783.035645,346.091980 780.058350,347.909515 
	C782.176758,349.922333 783.684021,351.354523 785.559448,353.136444 
	C786.764587,349.317291 787.777344,346.107941 788.248718,342.909637 
M813.674683,345.839478 
	C814.737549,348.092377 815.800415,350.345245 817.068298,353.032654 
	C819.050598,350.845856 820.409790,349.346405 822.068909,347.516174 
	C819.521667,345.975006 817.486145,344.632935 815.317810,343.559265 
	C815.017700,343.410645 814.060608,344.588989 813.674683,345.839478 
z"/>
<path fill="#E8EEF0" opacity="1.000000" stroke="none" 
	d="
M948.984253,513.901733 
	C953.502258,519.858948 957.419800,525.946960 964.786926,528.373779 
	C957.188660,529.964539 950.533020,529.383728 945.676880,522.251343 
	C941.937988,516.759766 937.771851,511.545380 933.585266,506.378265 
	C931.681702,504.028748 929.269226,502.091492 927.357361,500.229919 
	C942.418274,496.834106 946.952515,492.375763 945.238708,482.085052 
	C943.740662,473.090118 936.058350,469.643860 921.087708,471.422394 
	C921.087708,488.308350 920.953430,505.234833 921.250916,522.153748 
	C921.289856,524.369507 923.542969,526.546448 924.730164,528.669006 
	C919.753357,528.669006 913.865845,528.669006 907.978333,528.669006 
	C913.867554,526.575684 912.931763,521.477661 912.947876,516.841614 
	C912.993103,503.856384 912.861450,490.869354 913.039795,477.886322 
	C913.102844,473.294739 912.681458,469.444183 907.178162,468.389862 
	C917.851196,468.389862 928.592957,467.645569 939.175964,468.622009 
	C947.866455,469.423798 953.417786,475.931000 954.037598,483.140503 
	C954.681396,490.627380 950.621765,496.542206 942.239563,500.347107 
	C941.637329,500.620514 941.062256,500.953827 940.115906,501.445679 
	C943.043823,505.566467 945.903992,509.591888 948.984253,513.901733 
z"/>
<path fill="#E8EEF0" opacity="1.000000" stroke="none" 
	d="
M649.834778,473.727600 
	C649.794128,486.137115 649.310547,498.138580 649.989807,510.073944 
	C650.604553,520.876953 657.800537,526.525208 668.828552,526.334595 
	C679.283081,526.153992 686.478516,519.957458 686.953796,509.644623 
	C687.474304,498.350525 687.422546,487.007050 686.990051,475.709198 
	C686.889343,473.079132 684.240662,470.546631 682.931030,468.260132 
	C686.577393,468.260132 691.668823,468.260132 696.760315,468.260132 
	C691.756287,469.958557 691.442017,474.090576 691.394836,478.324921 
	C691.285461,488.144867 691.408020,497.971771 691.077087,507.783722 
	C690.702576,518.888672 685.177734,526.048462 675.334412,528.923035 
	C663.674744,532.328003 650.670410,529.383850 645.477783,521.093140 
	C643.065491,517.241516 641.938477,512.122437 641.661560,507.492249 
	C641.086182,497.870819 641.376038,488.191101 641.492676,478.537567 
	C641.550049,473.788757 641.373230,469.423431 635.433044,468.134186 
	C641.720764,468.134186 648.008423,468.134186 654.049194,468.134186 
	C652.691223,469.821198 651.294800,471.555969 649.834778,473.727600 
z"/>
<path fill="#E8EEF0" opacity="1.000000" stroke="none" 
	d="
M739.964111,525.722168 
	C739.501709,521.105896 739.164917,516.868958 738.828186,512.631958 
	C739.116455,512.574829 739.404724,512.517761 739.692993,512.460632 
	C740.127869,513.421509 740.597656,514.368286 740.992310,515.345398 
	C745.197815,525.758362 756.715820,530.217224 766.970032,525.443237 
	C771.163269,523.491028 773.441589,520.088562 773.655640,515.675171 
	C773.863281,511.393036 771.814392,507.841614 767.894531,505.921570 
	C764.331238,504.176208 760.526489,502.925690 756.837891,501.433105 
	C754.377991,500.437775 751.847290,499.569672 749.500366,498.351501 
	C741.308044,494.099182 737.999756,488.505249 739.279358,481.404968 
	C740.701294,473.514954 746.885315,467.592133 755.568298,467.032013 
	C761.452515,466.652405 767.419617,467.557526 773.692993,467.907227 
	C774.039673,472.582977 774.336365,476.584320 774.742004,482.055725 
	C773.481262,480.134399 772.903564,479.461304 772.551697,478.685760 
	C768.897400,470.632477 761.002014,467.407257 752.770996,470.553864 
	C748.635071,472.134979 746.233521,474.972870 745.857666,479.421844 
	C745.485535,483.827972 747.120239,487.317627 751.037109,489.395966 
	C753.808655,490.866638 756.809265,491.904114 759.700256,493.151825 
	C764.114197,495.056671 768.754395,496.575775 772.882996,498.974060 
	C781.096375,503.745300 783.114380,514.145447 776.867004,521.251587 
	C773.951111,524.568237 769.764282,527.498352 765.588501,528.824097 
	C756.942261,531.569275 748.220337,530.489502 739.964111,525.722168 
z"/>
<path fill="#E8EEF0" opacity="1.000000" stroke="none" 
	d="
M1022.792725,470.834503 
	C1023.619446,469.268585 1024.318848,468.024353 1025.480591,465.957489 
	C1029.916382,475.518738 1033.967041,484.220398 1037.992188,492.933838 
	C1042.584229,502.874420 1047.063721,512.868652 1051.804810,522.737366 
	C1052.810059,524.829529 1054.734741,526.479858 1056.321167,528.439087 
	C1050.923706,528.439087 1045.086914,528.439087 1039.250122,528.439087 
	C1043.915161,527.174622 1042.843262,524.249451 1041.587524,521.032837 
	C1036.695679,508.501099 1036.734619,508.485901 1023.102356,508.515594 
	C1022.436890,508.517029 1021.771484,508.518921 1021.106018,508.520508 
	C1009.130371,508.548676 1009.091797,508.535980 1005.335266,519.897461 
	C1004.319885,522.968384 1002.670837,526.352966 1007.196045,528.594360 
	C1002.637695,528.594360 998.079285,528.594360 992.811340,528.594360 
	C1002.111328,524.137512 1003.022705,514.715393 1006.688110,507.127930 
	C1012.392334,495.320160 1017.376282,483.164429 1022.792725,470.834503 
M1021.983337,505.469208 
	C1026.038086,505.469208 1030.092773,505.469208 1034.822754,505.469208 
	C1030.824341,496.206268 1027.237427,487.896606 1023.220520,478.590759 
	C1019.139648,487.905640 1015.449097,496.329681 1011.456482,505.443176 
	C1015.175171,505.443176 1018.136230,505.443176 1021.983337,505.469208 
z"/>
<path fill="#9D845C" opacity="1.000000" stroke="none" 
	d="
M866.144165,373.139465 
	C889.036926,366.734955 911.541931,360.391144 934.046936,354.047333 
	C931.117493,360.022766 927.098877,364.739563 921.041626,366.604034 
	C902.152466,372.418365 883.112793,377.744751 864.236267,383.598175 
	C861.567383,384.425751 859.055725,386.787781 857.224060,389.049286 
	C854.414185,392.518494 852.021179,396.388702 849.886658,400.324860 
	C847.473694,404.774567 843.799805,406.545013 838.020508,406.899963 
	C839.397034,404.969604 840.389648,403.627747 841.330200,402.250275 
	C846.200623,395.117584 851.268494,388.107178 855.834229,380.784027 
	C858.284851,376.853516 861.201782,374.102600 866.144165,373.139465 
z"/>
<path fill="#9D845C" opacity="1.000000" stroke="none" 
	d="
M733.821350,372.835266 
	C742.349121,374.594421 747.098694,380.139343 751.139282,386.914215 
	C755.120178,393.589233 759.724121,399.892700 764.376160,406.838989 
	C759.795837,406.946564 756.410706,405.815125 754.014465,402.463257 
	C751.983398,399.622192 749.682129,396.886292 748.174927,393.776947 
	C744.850037,386.917816 739.338989,383.777039 732.164185,381.833649 
	C715.804688,377.402557 699.631165,372.284851 683.384277,367.438568 
	C675.992004,365.233521 669.942200,360.390778 665.196899,352.540192 
	C667.942322,353.292145 670.112549,353.865417 672.270691,354.481201 
	C684.745850,358.040649 697.241699,361.530518 709.682922,365.205048 
	C717.643982,367.556366 725.523010,370.185394 733.821350,372.835266 
z"/>
<path fill="#E8EEF0" opacity="1.000000" stroke="none" 
	d="
M823.312622,467.914032 
	C838.390991,467.917419 853.010254,467.917419 867.924438,467.917419 
	C867.924438,470.614960 867.924438,473.136871 867.924438,475.996246 
	C862.000183,468.439331 854.225220,472.526093 846.704834,471.054932 
	C846.704834,476.490173 846.699158,481.263275 846.705933,486.036377 
	C846.721497,497.017090 846.707458,507.998047 846.781555,518.978394 
	C846.807983,522.892700 845.978760,527.363647 851.663330,528.661865 
	C845.605225,528.661865 839.547119,528.661865 833.488953,528.661865 
	C839.577454,526.712769 838.767151,521.624512 838.761108,516.855652 
	C838.742126,501.908417 838.754028,486.961151 838.754028,471.265594 
	C830.565186,472.000000 821.874451,468.200409 815.547791,476.904358 
	C816.077454,474.153687 816.607117,471.403015 817.279602,467.910645 
	C819.015930,467.910645 820.934692,467.910645 823.312622,467.914032 
z"/>
<path fill="#E8EEF0" opacity="1.000000" stroke="none" 
	d="
M566.838806,503.000122 
	C566.839050,510.460632 566.839050,517.421143 566.839050,525.383240 
	C578.550293,523.477966 590.745911,529.293640 600.782043,519.345398 
	C600.896912,526.376831 598.679443,528.803162 592.300171,528.817749 
	C579.567200,528.846924 566.834106,528.826355 553.624146,528.434814 
	C559.216431,527.007812 558.811584,522.796753 558.824219,518.802734 
	C558.867371,505.158234 558.786560,491.511932 559.000793,477.870209 
	C559.071594,473.363892 558.550537,469.652924 553.419250,468.128662 
	C559.475159,468.128662 565.531067,468.128662 571.586914,468.128662 
	C565.968567,469.781067 566.887268,474.399261 566.865845,478.538971 
	C566.824524,486.525848 566.844177,494.513062 566.838806,503.000122 
z"/>
<path fill="#9D845C" opacity="1.000000" stroke="none" 
	d="
M686.178467,375.808197 
	C695.942993,378.396179 705.717590,380.947144 715.468018,383.587311 
	C720.598267,384.976471 725.603088,387.036499 730.812439,387.878296 
	C739.025940,389.205597 742.738586,394.807800 746.177856,402.350006 
	C743.488525,401.742249 741.448303,401.404175 739.482666,400.816467 
	C728.815369,397.626984 718.295837,393.815948 707.471985,391.316315 
	C698.176147,389.169525 692.194275,383.087738 686.091431,376.317566 
	C686.053650,375.935059 686.178467,375.808197 686.178467,375.808197 
z"/>
<path fill="#9D845C" opacity="1.000000" stroke="none" 
	d="
M873.252808,397.246246 
	C867.652039,398.833618 862.432312,400.295593 857.116211,401.784607 
	C859.892151,393.538666 865.381226,389.627289 873.623230,387.714508 
	C887.406555,384.515717 900.904602,380.087708 915.593323,375.869659 
	C909.611816,383.648712 903.437439,388.955139 894.580872,390.980713 
	C887.500793,392.599915 880.609192,395.043304 873.252808,397.246246 
z"/>
<path fill="#E8EEF0" opacity="1.000000" stroke="none" 
	d="
M766.808472,569.429443 
	C768.023376,566.703125 769.135986,564.328430 770.850403,560.669250 
	C773.725830,566.625488 776.105164,571.554077 778.608276,576.739014 
	C775.670532,575.294861 773.327820,573.267639 770.956604,573.233826 
	C768.762878,573.202454 766.538574,575.305176 763.723083,576.786072 
	C764.765259,574.338867 765.735779,572.059937 766.808472,569.429443 
z"/>
<path fill="#E8EEF0" opacity="1.000000" stroke="none" 
	d="
M895.093384,574.578552 
	C895.800049,574.133362 896.433777,573.675232 896.941467,573.787354 
	C898.329529,574.094116 899.673340,574.981812 901.016479,574.946350 
	C901.669312,574.929077 902.976746,572.832886 902.791687,572.590332 
	C901.983948,571.531433 900.723389,570.824219 899.653015,569.957458 
	C898.100281,568.700073 896.175720,567.646362 895.225525,566.027161 
	C894.850098,565.387512 896.408752,562.662048 897.539917,562.299316 
	C899.518250,561.664856 901.846741,562.122437 903.916687,563.177612 
	C902.200195,564.196594 900.483643,565.215576 899.184753,565.986633 
	C901.505615,568.803894 903.557617,570.877930 904.935181,573.330750 
	C905.199463,573.801331 902.829712,576.791382 901.644531,576.811462 
	C899.429199,576.848999 897.191406,575.561829 895.093384,574.578552 
M900.494995,563.442871 
	C899.518494,564.194702 898.542053,564.946472 897.565552,565.698303 
	C898.138000,566.331848 898.710510,566.965454 899.282959,567.598999 
	C900.145996,566.575073 901.009033,565.551147 900.494995,563.442871 
z"/>
<path fill="#E8EEF0" opacity="1.000000" stroke="none" 
	d="
M739.629028,574.947510 
	C738.180359,573.268433 736.912109,571.844604 734.792542,569.465027 
	C734.243958,573.050232 733.950012,574.971130 733.656128,576.892029 
	C733.300293,576.859375 732.944458,576.826782 732.588623,576.794128 
	C732.588623,572.031006 732.588623,567.267822 732.588623,561.235962 
	C735.611755,561.855042 739.158691,561.729553 741.373047,563.385803 
	C742.520447,564.243958 741.307556,568.257690 741.161011,570.845764 
	C740.654724,570.899109 740.148499,570.952393 739.642212,571.005676 
	C740.731873,572.814697 741.821533,574.623657 742.911255,576.432678 
	C742.732971,576.663635 742.554749,576.894653 742.376526,577.125671 
	C741.520874,576.484680 740.665161,575.843750 739.629028,574.947510 
M740.649719,566.400940 
	C739.965698,561.872253 736.882019,563.685486 734.025452,563.671875 
	C734.166443,565.624390 734.280701,567.206177 734.484009,570.021240 
	C736.883667,568.798035 738.577637,567.934509 740.649719,566.400940 
z"/>
<path fill="#E8EEF0" opacity="1.000000" stroke="none" 
	d="
M802.000793,568.357910 
	C802.606018,569.632446 803.077881,570.483887 803.998230,572.144348 
	C806.237244,568.340637 808.209045,564.990967 810.180786,561.641235 
	C810.567261,561.817993 810.953735,561.994812 811.340210,562.171570 
	C809.211792,567.104004 807.083313,572.036499 804.362061,578.342773 
	C801.701294,572.254272 799.536377,567.300293 797.371399,562.346375 
	C797.918457,562.074890 798.465515,561.803467 799.012512,561.532043 
	C799.964172,563.666321 800.915833,565.800537 802.000793,568.357910 
z"/>
<path fill="#E8EEF0" opacity="1.000000" stroke="none" 
	d="
M837.909912,561.700134 
	C839.757751,561.779419 841.211426,561.874512 842.665100,561.969666 
	C842.700195,562.338135 842.735291,562.706665 842.770386,563.075134 
	C840.361633,563.247009 837.952881,563.418823 835.210083,563.614502 
	C835.210083,567.475525 835.210083,571.346375 835.210083,575.717773 
	C837.882019,575.717773 840.382080,575.717773 842.882202,575.717773 
	C842.882019,576.045898 842.881836,576.374023 842.881714,576.702148 
	C839.731323,576.702148 836.580933,576.702148 833.130798,576.702148 
	C833.130798,572.118958 833.130798,567.218079 833.130798,561.953125 
	C834.644653,561.871277 836.080200,561.793640 837.909912,561.700134 
z"/>
<path fill="#E8EEF0" opacity="1.000000" stroke="none" 
	d="
M707.016357,563.529663 
	C706.329407,568.141785 706.046936,572.537048 705.764465,576.932312 
	C705.311584,576.920471 704.858765,576.908569 704.405884,576.896729 
	C704.405884,572.608887 704.405884,568.321045 704.405884,563.929993 
	C702.482544,563.467773 701.109497,563.137756 699.736450,562.807800 
	C699.752136,562.566956 699.767822,562.326050 699.783508,562.085205 
	C703.331055,562.085205 706.878662,562.085205 710.426208,562.085205 
	C710.469238,562.276489 710.512268,562.467834 710.555359,562.659119 
	C709.510498,562.877014 708.465637,563.094910 707.016357,563.529663 
z"/>
<path fill="#E8EEF0" opacity="1.000000" stroke="none" 
	d="
M866.891907,563.180176 
	C866.884949,567.355164 866.884949,571.143616 866.884949,575.207153 
	C869.148010,575.532166 871.176086,575.823425 873.204163,576.114685 
	C873.201538,576.339966 873.198975,576.565247 873.196350,576.790527 
	C870.665527,576.790527 868.134644,576.790527 864.913696,576.790527 
	C864.913696,572.553406 864.882996,568.012878 864.998230,563.476074 
	C865.004395,563.232666 866.237122,563.020386 866.891907,563.180176 
z"/>
<path fill="#E8EEF0" opacity="1.000000" stroke="none" 
	d="
M602.933105,516.017456 
	C602.916321,515.996521 602.949890,516.038330 602.933105,516.017456 
z"/>
<path fill="#9D845C" opacity="1.000000" stroke="none" 
	d="
M936.451477,353.495728 
	C936.473816,353.488007 936.429138,353.503448 936.451477,353.495728 
z"/>
<path fill="#9D845C" opacity="1.000000" stroke="none" 
	d="
M685.989197,375.996399 
	C685.815491,375.864868 685.706177,375.671967 685.596924,375.479065 
	C685.733948,375.487457 685.870972,375.495850 686.093262,375.656219 
	C686.178467,375.808197 686.053650,375.935059 685.989197,375.996399 
z"/>
<path fill="#112530" opacity="1.000000" stroke="none" 
	d="
M820.637634,406.607391 
	C814.992615,411.535248 809.726379,416.375275 804.098511,420.750122 
	C802.884216,421.694122 799.658508,421.795868 798.564941,420.866699 
	C791.492188,414.857117 784.626587,408.583008 778.024719,402.059875 
	C776.860596,400.909607 776.353027,397.718658 777.096008,396.263306 
	C779.698181,391.166077 782.427246,385.933899 786.151733,381.663025 
	C790.252319,376.960846 795.504883,373.263306 801.277893,368.238312 
	C808.518677,375.563507 816.086914,382.099243 822.245911,389.766937 
	C828.369202,397.390015 827.623169,399.251465 820.637634,406.607391 
M807.074158,402.113403 
	C809.986816,402.526184 812.899536,402.938965 816.628052,403.467346 
	C807.174927,397.253845 793.826782,397.490845 786.646851,403.027435 
	C792.757080,402.731445 799.461182,402.406738 807.074158,402.113403 
z"/>
<path fill="#112530" opacity="1.000000" stroke="none" 
	d="
M767.543457,362.574768 
	C770.155640,358.942383 772.566772,355.618591 775.115723,352.104797 
	C778.360291,354.238434 781.043701,355.845093 783.518188,357.726440 
	C784.261169,358.291260 784.545166,359.590637 784.802185,360.613190 
	C784.950623,361.203522 784.468872,361.929474 784.535950,362.566437 
	C785.812805,374.688690 780.201599,384.081573 772.203674,392.322021 
	C764.544617,385.600830 759.806335,375.255249 767.543457,362.574768 
z"/>
<path fill="#112530" opacity="1.000000" stroke="none" 
	d="
M817.905273,360.615784 
	C816.675720,354.813385 822.971252,355.586792 824.385376,352.323669 
	C826.056702,353.097656 828.524780,353.419189 829.264648,354.722076 
	C832.908569,361.138794 836.149353,367.789032 839.376038,374.432770 
	C839.807922,375.322174 839.696899,376.810059 839.249207,377.736755 
	C836.604858,383.210632 833.786621,388.600586 830.853088,394.360046 
	C826.598450,388.662781 822.797546,383.776764 819.278687,378.695435 
	C818.543884,377.634369 818.780457,375.856384 818.690247,374.401276 
	C818.413879,369.939667 818.196167,365.474396 817.905273,360.615784 
z"/>
<path fill="#112530" opacity="1.000000" stroke="none" 
	d="
M789.743652,354.257874 
	C790.363708,351.987640 790.785095,350.026733 791.508484,348.184448 
	C794.140381,341.481750 798.993958,338.477600 805.526855,341.407318 
	C808.508301,342.744415 810.086853,347.719696 811.757568,351.298828 
	C812.966125,353.887909 812.280457,356.518738 809.411987,358.081848 
	C808.691467,358.474518 808.107605,359.111237 807.404724,359.544525 
	C805.051941,360.995026 802.091736,364.075012 800.422302,363.493469 
	C796.526978,362.136566 793.222595,359.046204 789.759766,356.545929 
	C789.438599,356.314026 789.695190,355.282074 789.743652,354.257874 
z"/>
<path fill="#112530" opacity="1.000000" stroke="none" 
	d="
M812.606995,373.294128 
	C809.782104,370.999054 807.213989,368.937256 804.187378,366.507385 
	C807.348083,364.231171 810.175293,362.195129 814.008301,359.434753 
	C814.359375,364.691376 814.656677,368.886444 814.832581,373.086609 
	C814.837524,373.205872 813.549133,373.379242 812.606995,373.294128 
z"/>
<path fill="#112530" opacity="1.000000" stroke="none" 
	d="
M790.047607,362.049500 
	C792.383850,363.593567 794.431702,364.936890 796.840576,366.517059 
	C793.743103,369.259918 790.975037,371.711060 788.206970,374.162201 
	C787.826416,373.930908 787.445923,373.699646 787.065430,373.468353 
	C787.464417,369.739197 787.840759,366.007050 788.323547,362.288788 
	C788.350220,362.083435 789.260254,361.992767 790.047607,362.049500 
z"/>
<path fill="#112530" opacity="1.000000" stroke="none" 
	d="
M788.519409,342.904114 
	C787.777344,346.107941 786.764587,349.317291 785.559448,353.136444 
	C783.684021,351.354523 782.176758,349.922333 780.058350,347.909515 
	C783.035645,346.091980 785.642212,344.500793 788.519409,342.904114 
z"/>
<path fill="#112530" opacity="1.000000" stroke="none" 
	d="
M813.541138,345.496216 
	C814.060608,344.588989 815.017700,343.410645 815.317810,343.559265 
	C817.486145,344.632935 819.521667,345.975006 822.068909,347.516174 
	C820.409790,349.346405 819.050598,350.845856 817.068298,353.032654 
	C815.800415,350.345245 814.737549,348.092377 813.541138,345.496216 
z"/>
<path fill="#112530" opacity="1.000000" stroke="none" 
	d="
M1021.540283,505.456177 
	C1018.136230,505.443176 1015.175171,505.443176 1011.456482,505.443176 
	C1015.449097,496.329681 1019.139648,487.905640 1023.220520,478.590759 
	C1027.237427,487.896606 1030.824341,496.206268 1034.822754,505.469208 
	C1030.092773,505.469208 1026.038086,505.469208 1021.540283,505.456177 
z"/>
<path fill="#112530" opacity="1.000000" stroke="none" 
	d="
M901.183533,563.985046 
	C901.009033,565.551147 900.145996,566.575073 899.282959,567.598999 
	C898.710510,566.965454 898.138000,566.331848 897.565552,565.698303 
	C898.542053,564.946472 899.518494,564.194702 901.183533,563.985046 
z"/>
<path fill="#112530" opacity="1.000000" stroke="none" 
	d="
M740.460693,566.735962 
	C738.577637,567.934509 736.883667,568.798035 734.484009,570.021240 
	C734.280701,567.206177 734.166443,565.624390 734.025452,563.671875 
	C736.882019,563.685486 739.965698,561.872253 740.460693,566.735962 
z"/>
<path fill="#9D845C" opacity="1.000000" stroke="none" 
	d="
M806.619751,402.097717 
	C799.461182,402.406738 792.757080,402.731445 786.646851,403.027435 
	C793.826782,397.490845 807.174927,397.253845 816.628052,403.467346 
	C812.899536,402.938965 809.986816,402.526184 806.619751,402.097717 
z"/>
</svg>